<svg xmlns="http://www.w3.org/2000/svg" xmlns:xlink="http://www.w3.org/1999/xlink" width="6248" zoomAndPan="magnify" viewBox="0 0 4686 1068.749946" height="1425" preserveAspectRatio="xMidYMid meet" version="1.0"><defs><g/><clipPath id="f2ca7faae3"><path d="M 262.304688 357.953125 L 614.71875 357.953125 L 614.71875 710.371094 L 262.304688 710.371094 Z M 262.304688 357.953125 " clip-rule="nonzero"/></clipPath></defs><g clip-path="url(#f2ca7faae3)"><path fill="#daa520" d="M 614.894531 534.207031 C 614.894531 537.09375 614.824219 539.976562 614.683594 542.859375 C 614.539062 545.742188 614.328125 548.621094 614.046875 551.492188 C 613.761719 554.363281 613.410156 557.226562 612.984375 560.082031 C 612.5625 562.9375 612.070312 565.78125 611.507812 568.613281 C 610.941406 571.441406 610.3125 574.257812 609.609375 577.058594 C 608.90625 579.859375 608.136719 582.636719 607.300781 585.402344 C 606.460938 588.164062 605.558594 590.902344 604.585938 593.621094 C 603.613281 596.335938 602.574219 599.03125 601.46875 601.695312 C 600.367188 604.363281 599.195312 607 597.960938 609.609375 C 596.726562 612.21875 595.429688 614.796875 594.070312 617.339844 C 592.710938 619.886719 591.289062 622.398438 589.804688 624.875 C 588.320312 627.347656 586.777344 629.785156 585.171875 632.1875 C 583.570312 634.585938 581.90625 636.945312 580.1875 639.261719 C 578.46875 641.582031 576.695312 643.855469 574.863281 646.085938 C 573.03125 648.320312 571.148438 650.503906 569.207031 652.640625 C 567.269531 654.78125 565.28125 656.871094 563.238281 658.910156 C 561.199219 660.953125 559.109375 662.941406 556.96875 664.878906 C 554.832031 666.820312 552.648438 668.703125 550.417969 670.535156 C 548.183594 672.367188 545.910156 674.140625 543.59375 675.859375 C 541.273438 677.578125 538.914062 679.242188 536.515625 680.84375 C 534.113281 682.449219 531.675781 683.992188 529.203125 685.476562 C 526.726562 686.960938 524.214844 688.382812 521.667969 689.742188 C 519.125 691.101562 516.546875 692.398438 513.9375 693.632812 C 511.328125 694.867188 508.691406 696.039062 506.023438 697.140625 C 503.359375 698.246094 500.664062 699.285156 497.949219 700.257812 C 495.230469 701.230469 492.492188 702.132812 489.730469 702.972656 C 486.96875 703.808594 484.1875 704.578125 481.386719 705.28125 C 478.585938 705.980469 475.769531 706.613281 472.941406 707.175781 C 470.109375 707.742188 467.265625 708.234375 464.410156 708.65625 C 461.554688 709.082031 458.691406 709.433594 455.820312 709.71875 C 452.949219 710 450.070312 710.210938 447.1875 710.355469 C 444.304688 710.496094 441.421875 710.566406 438.535156 710.566406 C 435.648438 710.566406 432.761719 710.496094 429.878906 710.355469 C 426.996094 710.210938 424.121094 710 421.246094 709.71875 C 418.375 709.433594 415.511719 709.082031 412.65625 708.65625 C 409.800781 708.234375 406.957031 707.742188 404.128906 707.175781 C 401.296875 706.613281 398.480469 705.980469 395.683594 705.28125 C 392.882812 704.578125 390.101562 703.808594 387.339844 702.972656 C 384.578125 702.132812 381.835938 701.230469 379.121094 700.257812 C 376.402344 699.285156 373.710938 698.246094 371.042969 697.140625 C 368.378906 696.039062 365.738281 694.867188 363.128906 693.632812 C 360.519531 692.398438 357.945312 691.101562 355.398438 689.742188 C 352.851562 688.382812 350.34375 686.960938 347.867188 685.476562 C 345.390625 683.992188 342.953125 682.449219 340.554688 680.84375 C 338.152344 679.242188 335.792969 677.578125 333.476562 675.859375 C 331.15625 674.140625 328.882812 672.367188 326.652344 670.535156 C 324.421875 668.703125 322.234375 666.820312 320.097656 664.878906 C 317.960938 662.941406 315.871094 660.953125 313.828125 658.910156 C 311.789062 656.871094 309.796875 654.78125 307.859375 652.640625 C 305.921875 650.503906 304.035156 648.320312 302.207031 646.085938 C 300.375 643.855469 298.597656 641.582031 296.878906 639.261719 C 295.160156 636.945312 293.5 634.585938 291.894531 632.1875 C 290.292969 629.785156 288.75 627.347656 287.265625 624.875 C 285.78125 622.398438 284.359375 619.886719 282.996094 617.339844 C 281.636719 614.796875 280.339844 612.21875 279.105469 609.609375 C 277.871094 607 276.703125 604.363281 275.597656 601.695312 C 274.492188 599.03125 273.457031 596.335938 272.484375 593.621094 C 271.511719 590.902344 270.605469 588.164062 269.765625 585.402344 C 268.929688 582.636719 268.160156 579.859375 267.457031 577.058594 C 266.757812 574.257812 266.125 571.441406 265.5625 568.613281 C 265 565.78125 264.503906 562.9375 264.082031 560.082031 C 263.660156 557.226562 263.304688 554.363281 263.023438 551.492188 C 262.738281 548.621094 262.527344 545.742188 262.386719 542.859375 C 262.246094 539.976562 262.171875 537.09375 262.171875 534.207031 C 262.171875 531.320312 262.246094 528.433594 262.386719 525.550781 C 262.527344 522.667969 262.738281 519.792969 263.023438 516.917969 C 263.304688 514.046875 263.660156 511.183594 264.082031 508.328125 C 264.507812 505.472656 265 502.628906 265.5625 499.800781 C 266.125 496.96875 266.757812 494.152344 267.457031 491.355469 C 268.160156 488.554688 268.929688 485.773438 269.765625 483.011719 C 270.605469 480.25 271.511719 477.507812 272.484375 474.792969 C 273.457031 472.074219 274.492188 469.382812 275.597656 466.714844 C 276.703125 464.050781 277.871094 461.410156 279.105469 458.800781 C 280.339844 456.191406 281.636719 453.617188 282.996094 451.070312 C 284.359375 448.523438 285.78125 446.015625 287.265625 443.539062 C 288.75 441.0625 290.292969 438.625 291.894531 436.226562 C 293.5 433.824219 295.160156 431.464844 296.878906 429.148438 C 298.597656 426.828125 300.375 424.554688 302.207031 422.324219 C 304.035156 420.09375 305.921875 417.90625 307.859375 415.769531 C 309.796875 413.628906 311.789062 411.539062 313.828125 409.5 C 315.871094 407.460938 317.960938 405.46875 320.097656 403.53125 C 322.234375 401.59375 324.421875 399.707031 326.652344 397.878906 C 328.882812 396.046875 331.15625 394.269531 333.476562 392.550781 C 335.792969 390.832031 338.152344 389.171875 340.554688 387.566406 C 342.953125 385.964844 345.390625 384.421875 347.867188 382.9375 C 350.34375 381.453125 352.851562 380.03125 355.398438 378.667969 C 357.945312 377.308594 360.519531 376.011719 363.128906 374.777344 C 365.738281 373.542969 368.378906 372.375 371.042969 371.269531 C 373.710938 370.164062 376.402344 369.125 379.121094 368.15625 C 381.835938 367.183594 384.578125 366.277344 387.339844 365.4375 C 390.101562 364.601562 392.882812 363.832031 395.683594 363.128906 C 398.480469 362.429688 401.296875 361.796875 404.128906 361.234375 C 406.957031 360.671875 409.800781 360.175781 412.65625 359.753906 C 415.511719 359.332031 418.375 358.976562 421.246094 358.695312 C 424.121094 358.410156 426.996094 358.199219 429.878906 358.058594 C 432.761719 357.914062 435.648438 357.84375 438.535156 357.84375 C 441.421875 357.84375 444.304688 357.914062 447.1875 358.058594 C 450.070312 358.199219 452.949219 358.410156 455.820312 358.695312 C 458.691406 358.976562 461.554688 359.332031 464.410156 359.753906 C 467.265625 360.175781 470.109375 360.671875 472.941406 361.234375 C 475.769531 361.796875 478.585938 362.429688 481.386719 363.128906 C 484.1875 363.832031 486.96875 364.601562 489.730469 365.4375 C 492.492188 366.277344 495.230469 367.183594 497.949219 368.15625 C 500.664062 369.125 503.359375 370.164062 506.023438 371.269531 C 508.691406 372.375 511.328125 373.542969 513.9375 374.777344 C 516.546875 376.011719 519.125 377.308594 521.667969 378.667969 C 524.214844 380.03125 526.726562 381.453125 529.203125 382.9375 C 531.675781 384.421875 534.113281 385.964844 536.515625 387.566406 C 538.914062 389.171875 541.273438 390.832031 543.59375 392.550781 C 545.910156 394.269531 548.183594 396.046875 550.417969 397.878906 C 552.648438 399.707031 554.832031 401.59375 556.96875 403.53125 C 559.109375 405.46875 561.199219 407.460938 563.238281 409.5 C 565.28125 411.539062 567.269531 413.628906 569.207031 415.769531 C 571.148438 417.90625 573.03125 420.09375 574.863281 422.324219 C 576.695312 424.554688 578.46875 426.828125 580.1875 429.148438 C 581.90625 431.464844 583.570312 433.824219 585.171875 436.226562 C 586.777344 438.625 588.320312 441.0625 589.804688 443.539062 C 591.289062 446.015625 592.710938 448.523438 594.070312 451.070312 C 595.429688 453.617188 596.726562 456.191406 597.960938 458.800781 C 599.195312 461.410156 600.367188 464.050781 601.46875 466.714844 C 602.574219 469.382812 603.613281 472.074219 604.585938 474.792969 C 605.558594 477.507812 606.460938 480.25 607.300781 483.011719 C 608.136719 485.773438 608.90625 488.554688 609.609375 491.355469 C 610.3125 494.152344 610.941406 496.96875 611.507812 499.800781 C 612.070312 502.628906 612.5625 505.472656 612.984375 508.328125 C 613.410156 511.183594 613.761719 514.046875 614.046875 516.917969 C 614.328125 519.792969 614.539062 522.667969 614.683594 525.550781 C 614.824219 528.433594 614.894531 531.320312 614.894531 534.207031 Z M 614.894531 534.207031 " fill-opacity="1" fill-rule="nonzero"/></g><g fill="#003399" fill-opacity="1"><g transform="translate(790.824919, 708.137394)"><g><path d="M 118.8125 -437.015625 C 164.789062 -437.015625 200.144531 -426.867188 224.875 -406.578125 C 249.601562 -386.296875 261.96875 -357.03125 261.96875 -318.78125 C 261.96875 -301 258.585938 -284.863281 251.828125 -270.375 C 245.066406 -255.882812 234.15625 -243.617188 219.09375 -233.578125 C 243.425781 -227.390625 263.320312 -213.957031 278.78125 -193.28125 C 294.238281 -172.613281 301.96875 -148.566406 301.96875 -121.140625 C 301.96875 -83.265625 288.347656 -53.601562 261.109375 -32.15625 C 233.867188 -10.71875 196.289062 0 148.375 0 L 44.046875 0 L 44.046875 -437.015625 Z M 92.734375 -244.59375 L 115.34375 -244.59375 C 143.550781 -244.59375 164.125 -247.488281 177.0625 -253.28125 C 190.007812 -259.070312 199.285156 -267.28125 204.890625 -277.90625 C 210.492188 -288.539062 213.296875 -302.164062 213.296875 -318.78125 C 213.296875 -344.664062 206.628906 -363.304688 193.296875 -374.703125 C 179.960938 -386.109375 153.785156 -391.8125 114.765625 -391.8125 L 92.734375 -391.8125 Z M 144.3125 -45.203125 C 180.25 -45.203125 207.394531 -51.867188 225.75 -65.203125 C 244.101562 -78.535156 253.28125 -98.53125 253.28125 -125.1875 C 253.28125 -150.695312 243.8125 -170.019531 224.875 -183.15625 C 205.945312 -196.289062 176.96875 -202.859375 137.9375 -202.859375 L 92.734375 -202.859375 L 92.734375 -45.203125 Z M 144.3125 -45.203125 "/></g></g></g><g fill="#003399" fill-opacity="1"><g transform="translate(1120.019131, 708.137394)"><g><path d="M 169.234375 -224.875 C 164.597656 -228.351562 160.25 -231.25 156.1875 -233.5625 C 152.132812 -235.882812 147.210938 -237.046875 141.421875 -237.046875 C 124.035156 -237.046875 110.800781 -229.316406 101.71875 -213.859375 C 92.632812 -198.410156 88.09375 -173.492188 88.09375 -139.109375 L 88.09375 0 L 41.734375 0 L 41.734375 -272.40625 L 88.09375 -272.40625 L 88.09375 -242.84375 L 89.25 -242.84375 C 100.457031 -257.914062 110.40625 -267.863281 119.09375 -272.6875 C 127.789062 -277.519531 137.9375 -279.9375 149.53125 -279.9375 C 156.488281 -279.9375 163.539062 -278.773438 170.6875 -276.453125 C 177.832031 -274.140625 184.691406 -271.050781 191.265625 -267.1875 Z M 169.234375 -224.875 "/></g></g></g><g fill="#003399" fill-opacity="1"><g transform="translate(1314.174214, 708.137394)"><g><path d="M 246.328125 -233.578125 L 246.328125 -272.40625 L 292.6875 -272.40625 L 292.6875 0 L 246.328125 0 L 246.328125 -37.671875 L 245.171875 -37.671875 C 221.210938 -7.535156 189.914062 7.53125 151.28125 7.53125 C 113.40625 7.53125 82.195312 -6.375 57.65625 -34.1875 C 33.125 -62.007812 20.859375 -95.820312 20.859375 -135.625 C 20.859375 -177.351562 33.222656 -211.835938 57.953125 -239.078125 C 82.679688 -266.316406 113.984375 -279.9375 151.859375 -279.9375 C 170.785156 -279.9375 188.265625 -275.878906 204.296875 -267.765625 C 220.335938 -259.648438 233.960938 -248.253906 245.171875 -233.578125 Z M 157.0625 -237.046875 C 132.332031 -237.046875 111.367188 -227.578125 94.171875 -208.640625 C 76.984375 -189.710938 68.390625 -166.535156 68.390625 -139.109375 C 68.390625 -109.734375 76.789062 -85.097656 93.59375 -65.203125 C 110.40625 -45.304688 131.757812 -35.359375 157.65625 -35.359375 C 185.082031 -35.359375 207.101562 -44.820312 223.71875 -63.75 C 240.332031 -82.6875 248.640625 -107.609375 248.640625 -138.515625 C 248.640625 -166.722656 240.140625 -190.195312 223.140625 -208.9375 C 206.140625 -227.675781 184.113281 -237.046875 157.0625 -237.046875 Z M 157.0625 -237.046875 "/></g></g></g><g fill="#003399" fill-opacity="1"><g transform="translate(1648.584506, 708.137394)"><g><path d="M 261.96875 0 L 215.609375 0 L 215.609375 -158.8125 C 215.609375 -186.238281 211.453125 -206.132812 203.140625 -218.5 C 194.835938 -230.863281 179.867188 -237.046875 158.234375 -237.046875 C 133.503906 -237.046875 116.019531 -228.546875 105.78125 -211.546875 C 95.539062 -194.546875 90.421875 -168.660156 90.421875 -133.890625 L 90.421875 0 L 44.046875 0 L 44.046875 -272.40625 L 90.421875 -272.40625 L 90.421875 -239.375 L 91.578125 -239.375 C 101.234375 -252.507812 112.335938 -262.550781 124.890625 -269.5 C 137.453125 -276.457031 152.234375 -279.9375 169.234375 -279.9375 C 199.765625 -279.9375 222.851562 -270.566406 238.5 -251.828125 C 254.144531 -233.085938 261.96875 -204.015625 261.96875 -164.609375 Z M 261.96875 0 "/></g></g></g><g fill="#003399" fill-opacity="1"><g transform="translate(1954.596068, 708.137394)"><g><path d="M 292.6875 -478.171875 L 292.6875 0 L 246.328125 0 L 246.328125 -37.671875 L 245.171875 -37.671875 C 233.578125 -22.597656 219.757812 -11.296875 203.71875 -3.765625 C 187.6875 3.765625 170.207031 7.53125 151.28125 7.53125 C 126.550781 7.53125 104.140625 1.0625 84.046875 -11.875 C 63.953125 -24.820312 48.394531 -42.210938 37.375 -64.046875 C 26.363281 -85.878906 20.859375 -109.738281 20.859375 -135.625 C 20.859375 -162.28125 26.363281 -186.71875 37.375 -208.9375 C 48.394531 -231.15625 63.953125 -248.539062 84.046875 -261.09375 C 104.140625 -273.65625 126.742188 -279.9375 151.859375 -279.9375 C 170.398438 -279.9375 187.785156 -275.878906 204.015625 -267.765625 C 220.242188 -259.648438 233.960938 -248.253906 245.171875 -233.578125 L 246.328125 -233.578125 L 246.328125 -478.171875 Z M 157.0625 -237.046875 C 131.945312 -237.046875 110.890625 -227.484375 93.890625 -208.359375 C 76.890625 -189.234375 68.390625 -166.148438 68.390625 -139.109375 C 68.390625 -109.347656 76.695312 -84.613281 93.3125 -64.90625 C 109.925781 -45.207031 131.375 -35.359375 157.65625 -35.359375 C 184.695312 -35.359375 206.617188 -44.820312 223.421875 -63.75 C 240.234375 -82.6875 248.640625 -107.609375 248.640625 -138.515625 C 248.640625 -167.890625 240.039062 -191.65625 222.84375 -209.8125 C 205.65625 -227.96875 183.726562 -237.046875 157.0625 -237.046875 Z M 157.0625 -237.046875 "/></g></g></g><g fill="#003399" fill-opacity="1"><g transform="translate(2289.006359, 708.137394)"><g><path d="M 377.3125 -341.375 C 358.769531 -359.925781 338 -374.222656 315 -384.265625 C 292.007812 -394.316406 268.347656 -399.34375 244.015625 -399.34375 C 213.097656 -399.34375 183.921875 -391.035156 156.484375 -374.421875 C 129.054688 -357.804688 107.421875 -335.585938 91.578125 -307.765625 C 75.734375 -279.941406 67.8125 -250.1875 67.8125 -218.5 C 67.8125 -187.59375 75.828125 -158.035156 91.859375 -129.828125 C 107.898438 -101.617188 129.632812 -79.207031 157.0625 -62.59375 C 184.5 -45.976562 213.867188 -37.671875 245.171875 -37.671875 C 268.734375 -37.671875 292.007812 -42.691406 315 -52.734375 C 338 -62.785156 358.769531 -77.085938 377.3125 -95.640625 L 377.3125 -35.359375 C 358.769531 -21.828125 338.195312 -11.296875 315.59375 -3.765625 C 292.988281 3.765625 270.09375 7.53125 246.90625 7.53125 C 208.269531 7.53125 171.269531 -2.125 135.90625 -21.4375 C 100.550781 -40.757812 72.25 -67.804688 51 -102.578125 C 29.75 -137.359375 19.125 -175.421875 19.125 -216.765625 C 19.125 -257.722656 29.363281 -295.6875 49.84375 -330.65625 C 70.320312 -365.625 98.238281 -393.347656 133.59375 -413.828125 C 168.945312 -434.304688 206.71875 -444.546875 246.90625 -444.546875 C 271.632812 -444.546875 295.785156 -440.488281 319.359375 -432.375 C 342.929688 -424.257812 362.25 -414.019531 377.3125 -401.65625 Z M 377.3125 -341.375 "/></g></g></g><g fill="#003399" fill-opacity="1"><g transform="translate(2704.556078, 708.137394)"><g><path d="M 99.109375 -272.40625 L 99.109375 0 L 52.75 0 L 52.75 -272.40625 Z M 42.890625 -376.15625 C 42.890625 -384.65625 46.269531 -392.09375 53.03125 -398.46875 C 59.789062 -404.84375 67.421875 -408.03125 75.921875 -408.03125 C 84.804688 -408.03125 92.535156 -404.84375 99.109375 -398.46875 C 105.679688 -392.09375 108.96875 -384.65625 108.96875 -376.15625 C 108.96875 -366.113281 105.679688 -357.898438 99.109375 -351.515625 C 92.535156 -345.140625 84.804688 -341.953125 75.921875 -341.953125 C 67.035156 -341.953125 59.304688 -345.039062 52.734375 -351.21875 C 46.171875 -357.40625 42.890625 -365.71875 42.890625 -376.15625 Z M 42.890625 -376.15625 "/></g></g></g><g fill="#003399" fill-opacity="1"><g transform="translate(2856.402612, 708.137394)"><g><path d="M 169.234375 -224.875 C 164.597656 -228.351562 160.25 -231.25 156.1875 -233.5625 C 152.132812 -235.882812 147.210938 -237.046875 141.421875 -237.046875 C 124.035156 -237.046875 110.800781 -229.316406 101.71875 -213.859375 C 92.632812 -198.410156 88.09375 -173.492188 88.09375 -139.109375 L 88.09375 0 L 41.734375 0 L 41.734375 -272.40625 L 88.09375 -272.40625 L 88.09375 -242.84375 L 89.25 -242.84375 C 100.457031 -257.914062 110.40625 -267.863281 119.09375 -272.6875 C 127.789062 -277.519531 137.9375 -279.9375 149.53125 -279.9375 C 156.488281 -279.9375 163.539062 -278.773438 170.6875 -276.453125 C 177.832031 -274.140625 184.691406 -271.050781 191.265625 -267.1875 Z M 169.234375 -224.875 "/></g></g></g><g fill="#003399" fill-opacity="1"><g transform="translate(3050.557695, 708.137394)"><g><path d="M 246.328125 -191.265625 L 245.171875 -191.265625 C 235.117188 -204.785156 222.847656 -215.796875 208.359375 -224.296875 C 193.867188 -232.796875 177.929688 -237.046875 160.546875 -237.046875 C 133.492188 -237.046875 110.691406 -227.191406 92.140625 -207.484375 C 73.597656 -187.785156 64.328125 -164.023438 64.328125 -136.203125 C 64.328125 -108.378906 73.210938 -84.613281 90.984375 -64.90625 C 108.765625 -45.207031 131.179688 -35.359375 158.234375 -35.359375 C 177.929688 -35.359375 194.832031 -39.507812 208.9375 -47.8125 C 223.039062 -56.125 235.695312 -67.617188 246.90625 -82.296875 L 248.0625 -82.296875 L 248.0625 -20.28125 C 235.3125 -11.394531 221.785156 -4.539062 207.484375 0.28125 C 193.191406 5.113281 177.929688 7.53125 161.703125 7.53125 C 135.816406 7.53125 111.570312 1.347656 88.96875 -11.015625 C 66.363281 -23.378906 48.6875 -40.671875 35.9375 -62.890625 C 23.1875 -85.109375 16.8125 -109.546875 16.8125 -136.203125 C 16.8125 -161.316406 23.085938 -184.984375 35.640625 -207.203125 C 48.203125 -229.421875 65.878906 -247.097656 88.671875 -260.234375 C 111.472656 -273.367188 136.007812 -279.9375 162.28125 -279.9375 C 176.195312 -279.9375 189.816406 -278.003906 203.140625 -274.140625 C 216.472656 -270.285156 230.867188 -263.140625 246.328125 -252.703125 Z M 246.328125 -191.265625 "/></g></g></g><g fill="#003399" fill-opacity="1"><g transform="translate(3326.431621, 708.137394)"><g><path d="M 89.25 -478.171875 L 89.25 0 L 42.890625 0 L 42.890625 -478.171875 Z M 89.25 -478.171875 "/></g></g></g><g fill="#003399" fill-opacity="1"><g transform="translate(3457.993423, 708.137394)"><g><path d="M 281.109375 -126.34375 L 67.234375 -126.34375 C 68.003906 -99.300781 76.890625 -77.375 93.890625 -60.5625 C 110.890625 -43.757812 131.753906 -35.359375 156.484375 -35.359375 C 173.878906 -35.359375 189.238281 -39.800781 202.5625 -48.6875 C 215.894531 -57.570312 228.164062 -71.867188 239.375 -91.578125 L 278.78125 -68.96875 C 265.644531 -44.625 248.351562 -25.785156 226.90625 -12.453125 C 205.46875 0.867188 180.835938 7.53125 153.015625 7.53125 C 126.347656 7.53125 102.773438 1.15625 82.296875 -11.59375 C 61.816406 -24.34375 46.265625 -41.4375 35.640625 -62.875 C 25.015625 -84.320312 19.703125 -107.609375 19.703125 -132.734375 C 19.703125 -160.546875 25.015625 -185.65625 35.640625 -208.0625 C 46.265625 -230.476562 61.625 -248.0625 81.71875 -260.8125 C 101.8125 -273.5625 125.191406 -279.9375 151.859375 -279.9375 C 177.742188 -279.9375 200.632812 -273.65625 220.53125 -261.09375 C 240.4375 -248.539062 255.601562 -231.253906 266.03125 -209.234375 C 276.46875 -187.210938 281.6875 -162.484375 281.6875 -135.046875 C 281.6875 -132.335938 281.492188 -129.4375 281.109375 -126.34375 Z M 232.421875 -165.765625 C 228.554688 -187.015625 219.085938 -204.207031 204.015625 -217.34375 C 188.941406 -230.476562 171.75 -237.046875 152.4375 -237.046875 C 133.5 -237.046875 115.722656 -230.1875 99.109375 -216.46875 C 82.492188 -202.757812 72.640625 -185.859375 69.546875 -165.765625 Z M 232.421875 -165.765625 "/></g></g></g><g fill="#003399" fill-opacity="1"><g transform="translate(3758.788742, 708.137394)"><g><path d="M 89.25 7.53125 C 80.363281 7.53125 72.734375 4.25 66.359375 -2.3125 C 59.984375 -8.882812 56.796875 -16.613281 56.796875 -25.5 C 56.796875 -34 59.984375 -41.4375 66.359375 -47.8125 C 72.734375 -54.1875 80.363281 -57.375 89.25 -57.375 C 98.144531 -57.375 105.78125 -54.1875 112.15625 -47.8125 C 118.53125 -41.4375 121.71875 -34 121.71875 -25.5 C 121.71875 -16.613281 118.53125 -8.882812 112.15625 -2.3125 C 105.78125 4.25 98.144531 7.53125 89.25 7.53125 Z M 89.25 7.53125 "/></g></g></g><g fill="#003399" fill-opacity="1"><g transform="translate(3937.295585, 708.137394)"><g><path d="M 246.328125 -233.578125 L 246.328125 -272.40625 L 292.6875 -272.40625 L 292.6875 0 L 246.328125 0 L 246.328125 -37.671875 L 245.171875 -37.671875 C 221.210938 -7.535156 189.914062 7.53125 151.28125 7.53125 C 113.40625 7.53125 82.195312 -6.375 57.65625 -34.1875 C 33.125 -62.007812 20.859375 -95.820312 20.859375 -135.625 C 20.859375 -177.351562 33.222656 -211.835938 57.953125 -239.078125 C 82.679688 -266.316406 113.984375 -279.9375 151.859375 -279.9375 C 170.785156 -279.9375 188.265625 -275.878906 204.296875 -267.765625 C 220.335938 -259.648438 233.960938 -248.253906 245.171875 -233.578125 Z M 157.0625 -237.046875 C 132.332031 -237.046875 111.367188 -227.578125 94.171875 -208.640625 C 76.984375 -189.710938 68.390625 -166.535156 68.390625 -139.109375 C 68.390625 -109.734375 76.789062 -85.097656 93.59375 -65.203125 C 110.40625 -45.304688 131.757812 -35.359375 157.65625 -35.359375 C 185.082031 -35.359375 207.101562 -44.820312 223.71875 -63.75 C 240.332031 -82.6875 248.640625 -107.609375 248.640625 -138.515625 C 248.640625 -166.722656 240.140625 -190.195312 223.140625 -208.9375 C 206.140625 -227.675781 184.113281 -237.046875 157.0625 -237.046875 Z M 157.0625 -237.046875 "/></g></g></g><g fill="#003399" fill-opacity="1"><g transform="translate(4271.705713, 708.137394)"><g><path d="M 99.109375 -272.40625 L 99.109375 0 L 52.75 0 L 52.75 -272.40625 Z M 42.890625 -376.15625 C 42.890625 -384.65625 46.269531 -392.09375 53.03125 -398.46875 C 59.789062 -404.84375 67.421875 -408.03125 75.921875 -408.03125 C 84.804688 -408.03125 92.535156 -404.84375 99.109375 -398.46875 C 105.679688 -392.09375 108.96875 -384.65625 108.96875 -376.15625 C 108.96875 -366.113281 105.679688 -357.898438 99.109375 -351.515625 C 92.535156 -345.140625 84.804688 -341.953125 75.921875 -341.953125 C 67.035156 -341.953125 59.304688 -345.039062 52.734375 -351.21875 C 46.171875 -357.40625 42.890625 -365.71875 42.890625 -376.15625 Z M 42.890625 -376.15625 "/></g></g></g></svg>