<svg xmlns="http://www.w3.org/2000/svg" xmlns:xlink="http://www.w3.org/1999/xlink" width="200" zoomAndPan="magnify" viewBox="0 0 150 60" height="80" preserveAspectRatio="xMidYMid meet" version="1.0"><defs><g/><clipPath id="f037292211"><path d="M 5.179688 24.085938 L 17.179688 24.085938 L 17.179688 36 L 5.179688 36 Z M 5.179688 24.085938 " clip-rule="nonzero"/></clipPath></defs><g clip-path="url(#f037292211)"><path fill="#daa520" d="M 17.003906 29.996094 C 17.003906 30.382812 16.964844 30.769531 16.890625 31.148438 C 16.816406 31.53125 16.703125 31.898438 16.554688 32.257812 C 16.40625 32.617188 16.222656 32.957031 16.007812 33.28125 C 15.792969 33.605469 15.546875 33.902344 15.273438 34.175781 C 14.996094 34.453125 14.699219 34.695312 14.375 34.914062 C 14.050781 35.128906 13.710938 35.3125 13.351562 35.460938 C 12.992188 35.609375 12.625 35.71875 12.242188 35.796875 C 11.863281 35.871094 11.476562 35.910156 11.089844 35.910156 C 10.699219 35.910156 10.316406 35.871094 9.9375 35.796875 C 9.554688 35.71875 9.183594 35.609375 8.824219 35.460938 C 8.46875 35.3125 8.125 35.128906 7.804688 34.914062 C 7.480469 34.695312 7.183594 34.453125 6.90625 34.175781 C 6.632812 33.902344 6.386719 33.605469 6.171875 33.28125 C 5.957031 32.957031 5.773438 32.617188 5.625 32.257812 C 5.476562 31.898438 5.363281 31.53125 5.289062 31.148438 C 5.210938 30.769531 5.175781 30.382812 5.175781 29.996094 C 5.175781 29.605469 5.210938 29.222656 5.289062 28.839844 C 5.363281 28.460938 5.476562 28.089844 5.625 27.730469 C 5.773438 27.371094 5.957031 27.03125 6.171875 26.710938 C 6.386719 26.386719 6.632812 26.085938 6.90625 25.8125 C 7.183594 25.539062 7.480469 25.292969 7.804688 25.078125 C 8.125 24.863281 8.46875 24.679688 8.824219 24.53125 C 9.183594 24.382812 9.554688 24.269531 9.9375 24.195312 C 10.316406 24.117188 10.699219 24.082031 11.089844 24.082031 C 11.476562 24.082031 11.863281 24.117188 12.242188 24.195312 C 12.625 24.269531 12.992188 24.382812 13.351562 24.53125 C 13.710938 24.679688 14.050781 24.863281 14.375 25.078125 C 14.699219 25.292969 14.996094 25.539062 15.273438 25.8125 C 15.546875 26.085938 15.792969 26.386719 16.007812 26.710938 C 16.222656 27.03125 16.40625 27.371094 16.554688 27.730469 C 16.703125 28.089844 16.816406 28.460938 16.890625 28.839844 C 16.964844 29.222656 17.003906 29.605469 17.003906 29.996094 Z M 17.003906 29.996094 " fill-opacity="1" fill-rule="nonzero"/></g><g fill="#003399" fill-opacity="1"><g transform="translate(22.914605, 35.835035)"><g><path d="M 3.984375 -14.671875 C 5.523438 -14.671875 6.710938 -14.328125 7.546875 -13.640625 C 8.378906 -12.960938 8.796875 -11.984375 8.796875 -10.703125 C 8.796875 -10.097656 8.679688 -9.550781 8.453125 -9.0625 C 8.222656 -8.582031 7.859375 -8.175781 7.359375 -7.84375 C 8.171875 -7.632812 8.835938 -7.179688 9.359375 -6.484375 C 9.878906 -5.796875 10.140625 -4.988281 10.140625 -4.0625 C 10.140625 -2.789062 9.679688 -1.796875 8.765625 -1.078125 C 7.847656 -0.359375 6.585938 0 4.984375 0 L 1.484375 0 L 1.484375 -14.671875 Z M 3.109375 -8.203125 L 3.875 -8.203125 C 4.820312 -8.203125 5.507812 -8.300781 5.9375 -8.5 C 6.375 -8.695312 6.6875 -8.972656 6.875 -9.328125 C 7.0625 -9.679688 7.15625 -10.140625 7.15625 -10.703125 C 7.15625 -11.566406 6.929688 -12.191406 6.484375 -12.578125 C 6.035156 -12.960938 5.160156 -13.15625 3.859375 -13.15625 L 3.109375 -13.15625 Z M 4.84375 -1.515625 C 6.050781 -1.515625 6.960938 -1.738281 7.578125 -2.1875 C 8.191406 -2.632812 8.5 -3.304688 8.5 -4.203125 C 8.5 -5.054688 8.179688 -5.703125 7.546875 -6.140625 C 6.910156 -6.585938 5.9375 -6.8125 4.625 -6.8125 L 3.109375 -6.8125 L 3.109375 -1.515625 Z M 4.84375 -1.515625 "/></g></g></g><g fill="#003399" fill-opacity="1"><g transform="translate(33.961175, 35.835035)"><g><path d="M 5.6875 -7.546875 C 5.53125 -7.660156 5.378906 -7.753906 5.234375 -7.828125 C 5.097656 -7.910156 4.9375 -7.953125 4.75 -7.953125 C 4.164062 -7.953125 3.71875 -7.691406 3.40625 -7.171875 C 3.101562 -6.660156 2.953125 -5.828125 2.953125 -4.671875 L 2.953125 0 L 1.40625 0 L 1.40625 -9.140625 L 2.953125 -9.140625 L 2.953125 -8.15625 L 3 -8.15625 C 3.375 -8.65625 3.707031 -8.984375 4 -9.140625 C 4.289062 -9.304688 4.628906 -9.390625 5.015625 -9.390625 C 5.253906 -9.390625 5.492188 -9.347656 5.734375 -9.265625 C 5.972656 -9.191406 6.203125 -9.09375 6.421875 -8.96875 Z M 5.6875 -7.546875 "/></g></g></g><g fill="#003399" fill-opacity="1"><g transform="translate(40.476318, 35.835035)"><g><path d="M 8.265625 -7.84375 L 8.265625 -9.140625 L 9.828125 -9.140625 L 9.828125 0 L 8.265625 0 L 8.265625 -1.265625 L 8.234375 -1.265625 C 7.421875 -0.253906 6.367188 0.25 5.078125 0.25 C 3.804688 0.25 2.757812 -0.210938 1.9375 -1.140625 C 1.113281 -2.078125 0.703125 -3.210938 0.703125 -4.546875 C 0.703125 -5.953125 1.113281 -7.109375 1.9375 -8.015625 C 2.769531 -8.929688 3.820312 -9.390625 5.09375 -9.390625 C 5.726562 -9.390625 6.316406 -9.253906 6.859375 -8.984375 C 7.398438 -8.710938 7.859375 -8.332031 8.234375 -7.84375 Z M 5.265625 -7.953125 C 4.441406 -7.953125 3.738281 -7.632812 3.15625 -7 C 2.582031 -6.363281 2.296875 -5.585938 2.296875 -4.671875 C 2.296875 -3.679688 2.578125 -2.851562 3.140625 -2.1875 C 3.703125 -1.519531 4.421875 -1.1875 5.296875 -1.1875 C 6.210938 -1.1875 6.945312 -1.503906 7.5 -2.140625 C 8.0625 -2.773438 8.34375 -3.613281 8.34375 -4.65625 C 8.34375 -5.59375 8.054688 -6.375 7.484375 -7 C 6.921875 -7.632812 6.179688 -7.953125 5.265625 -7.953125 Z M 5.265625 -7.953125 "/></g></g></g><g fill="#003399" fill-opacity="1"><g transform="translate(51.697921, 35.835035)"><g><path d="M 8.796875 0 L 7.234375 0 L 7.234375 -5.328125 C 7.234375 -6.253906 7.09375 -6.921875 6.8125 -7.328125 C 6.539062 -7.742188 6.039062 -7.953125 5.3125 -7.953125 C 4.476562 -7.953125 3.890625 -7.664062 3.546875 -7.09375 C 3.203125 -6.53125 3.03125 -5.664062 3.03125 -4.5 L 3.03125 0 L 1.484375 0 L 1.484375 -9.140625 L 3.03125 -9.140625 L 3.03125 -8.03125 L 3.078125 -8.03125 C 3.398438 -8.476562 3.769531 -8.816406 4.1875 -9.046875 C 4.613281 -9.273438 5.113281 -9.390625 5.6875 -9.390625 C 6.707031 -9.390625 7.476562 -9.078125 8 -8.453125 C 8.53125 -7.828125 8.796875 -6.851562 8.796875 -5.53125 Z M 8.796875 0 "/></g></g></g><g fill="#003399" fill-opacity="1"><g transform="translate(61.966565, 35.835035)"><g><path d="M 9.828125 -16.046875 L 9.828125 0 L 8.265625 0 L 8.265625 -1.265625 L 8.234375 -1.265625 C 7.835938 -0.753906 7.367188 -0.375 6.828125 -0.125 C 6.296875 0.125 5.710938 0.25 5.078125 0.25 C 4.242188 0.25 3.488281 0.0351562 2.8125 -0.390625 C 2.144531 -0.828125 1.625 -1.410156 1.25 -2.140625 C 0.882812 -2.878906 0.703125 -3.679688 0.703125 -4.546875 C 0.703125 -5.441406 0.882812 -6.257812 1.25 -7 C 1.625 -7.75 2.144531 -8.332031 2.8125 -8.75 C 3.488281 -9.175781 4.25 -9.390625 5.09375 -9.390625 C 5.71875 -9.390625 6.300781 -9.253906 6.84375 -8.984375 C 7.394531 -8.710938 7.859375 -8.332031 8.234375 -7.84375 L 8.265625 -7.84375 L 8.265625 -16.046875 Z M 5.265625 -7.953125 C 4.421875 -7.953125 3.710938 -7.628906 3.140625 -6.984375 C 2.578125 -6.347656 2.296875 -5.578125 2.296875 -4.671875 C 2.296875 -3.671875 2.570312 -2.835938 3.125 -2.171875 C 3.6875 -1.515625 4.410156 -1.1875 5.296875 -1.1875 C 6.203125 -1.1875 6.9375 -1.503906 7.5 -2.140625 C 8.0625 -2.773438 8.34375 -3.613281 8.34375 -4.65625 C 8.34375 -5.632812 8.050781 -6.425781 7.46875 -7.03125 C 6.894531 -7.644531 6.160156 -7.953125 5.265625 -7.953125 Z M 5.265625 -7.953125 "/></g></g></g><g fill="#003399" fill-opacity="1"><g transform="translate(73.188167, 35.835035)"><g><path d="M 12.65625 -11.453125 C 12.039062 -12.078125 11.347656 -12.554688 10.578125 -12.890625 C 9.804688 -13.234375 9.007812 -13.40625 8.1875 -13.40625 C 7.15625 -13.40625 6.175781 -13.125 5.25 -12.5625 C 4.332031 -12.007812 3.609375 -11.265625 3.078125 -10.328125 C 2.546875 -9.390625 2.28125 -8.390625 2.28125 -7.328125 C 2.28125 -6.296875 2.546875 -5.304688 3.078125 -4.359375 C 3.617188 -3.410156 4.347656 -2.65625 5.265625 -2.09375 C 6.191406 -1.539062 7.179688 -1.265625 8.234375 -1.265625 C 9.023438 -1.265625 9.804688 -1.429688 10.578125 -1.765625 C 11.347656 -2.109375 12.039062 -2.585938 12.65625 -3.203125 L 12.65625 -1.1875 C 12.039062 -0.726562 11.351562 -0.375 10.59375 -0.125 C 9.832031 0.125 9.0625 0.25 8.28125 0.25 C 6.988281 0.25 5.75 -0.0703125 4.5625 -0.71875 C 3.375 -1.363281 2.421875 -2.269531 1.703125 -3.4375 C 0.992188 -4.601562 0.640625 -5.882812 0.640625 -7.28125 C 0.640625 -8.65625 0.984375 -9.925781 1.671875 -11.09375 C 2.359375 -12.269531 3.296875 -13.203125 4.484375 -13.890625 C 5.671875 -14.578125 6.9375 -14.921875 8.28125 -14.921875 C 9.113281 -14.921875 9.925781 -14.785156 10.71875 -14.515625 C 11.507812 -14.242188 12.15625 -13.898438 12.65625 -13.484375 Z M 12.65625 -11.453125 "/></g></g></g><g fill="#003399" fill-opacity="1"><g transform="translate(87.132516, 35.835035)"><g><path d="M 3.328125 -9.140625 L 3.328125 0 L 1.765625 0 L 1.765625 -9.140625 Z M 1.4375 -12.625 C 1.4375 -12.90625 1.550781 -13.148438 1.78125 -13.359375 C 2.007812 -13.578125 2.265625 -13.6875 2.546875 -13.6875 C 2.847656 -13.6875 3.109375 -13.578125 3.328125 -13.359375 C 3.546875 -13.148438 3.65625 -12.90625 3.65625 -12.625 C 3.65625 -12.289062 3.546875 -12.015625 3.328125 -11.796875 C 3.109375 -11.585938 2.847656 -11.484375 2.546875 -11.484375 C 2.242188 -11.484375 1.984375 -11.582031 1.765625 -11.78125 C 1.546875 -11.988281 1.4375 -12.269531 1.4375 -12.625 Z M 1.4375 -12.625 "/></g></g></g><g fill="#003399" fill-opacity="1"><g transform="translate(92.227938, 35.835035)"><g><path d="M 5.6875 -7.546875 C 5.53125 -7.660156 5.378906 -7.753906 5.234375 -7.828125 C 5.097656 -7.910156 4.9375 -7.953125 4.75 -7.953125 C 4.164062 -7.953125 3.71875 -7.691406 3.40625 -7.171875 C 3.101562 -6.660156 2.953125 -5.828125 2.953125 -4.671875 L 2.953125 0 L 1.40625 0 L 1.40625 -9.140625 L 2.953125 -9.140625 L 2.953125 -8.15625 L 3 -8.15625 C 3.375 -8.65625 3.707031 -8.984375 4 -9.140625 C 4.289062 -9.304688 4.628906 -9.390625 5.015625 -9.390625 C 5.253906 -9.390625 5.492188 -9.347656 5.734375 -9.265625 C 5.972656 -9.191406 6.203125 -9.09375 6.421875 -8.96875 Z M 5.6875 -7.546875 "/></g></g></g><g fill="#003399" fill-opacity="1"><g transform="translate(98.743082, 35.835035)"><g><path d="M 8.265625 -6.421875 L 8.234375 -6.421875 C 7.890625 -6.867188 7.472656 -7.234375 6.984375 -7.515625 C 6.503906 -7.804688 5.972656 -7.953125 5.390625 -7.953125 C 4.484375 -7.953125 3.71875 -7.617188 3.09375 -6.953125 C 2.46875 -6.296875 2.15625 -5.503906 2.15625 -4.578125 C 2.15625 -3.640625 2.453125 -2.835938 3.046875 -2.171875 C 3.648438 -1.515625 4.40625 -1.1875 5.3125 -1.1875 C 5.96875 -1.1875 6.53125 -1.320312 7 -1.59375 C 7.476562 -1.875 7.90625 -2.265625 8.28125 -2.765625 L 8.328125 -2.765625 L 8.328125 -0.6875 C 7.898438 -0.382812 7.445312 -0.15625 6.96875 0 C 6.488281 0.164062 5.972656 0.25 5.421875 0.25 C 4.554688 0.25 3.742188 0.046875 2.984375 -0.359375 C 2.222656 -0.773438 1.628906 -1.359375 1.203125 -2.109375 C 0.773438 -2.859375 0.5625 -3.679688 0.5625 -4.578125 C 0.5625 -5.410156 0.769531 -6.203125 1.1875 -6.953125 C 1.613281 -7.703125 2.207031 -8.296875 2.96875 -8.734375 C 3.738281 -9.171875 4.566406 -9.390625 5.453125 -9.390625 C 5.910156 -9.390625 6.363281 -9.320312 6.8125 -9.1875 C 7.257812 -9.0625 7.742188 -8.828125 8.265625 -8.484375 Z M 8.265625 -6.421875 "/></g></g></g><g fill="#003399" fill-opacity="1"><g transform="translate(108.000415, 35.835035)"><g><path d="M 3 -16.046875 L 3 0 L 1.4375 0 L 1.4375 -16.046875 Z M 3 -16.046875 "/></g></g></g><g fill="#003399" fill-opacity="1"><g transform="translate(112.415155, 35.835035)"><g><path d="M 9.4375 -4.234375 L 2.25 -4.234375 C 2.28125 -3.328125 2.578125 -2.59375 3.140625 -2.03125 C 3.710938 -1.46875 4.414062 -1.1875 5.25 -1.1875 C 5.832031 -1.1875 6.347656 -1.332031 6.796875 -1.625 C 7.242188 -1.925781 7.65625 -2.410156 8.03125 -3.078125 L 9.359375 -2.3125 C 8.921875 -1.5 8.335938 -0.867188 7.609375 -0.421875 C 6.890625 0.0234375 6.066406 0.25 5.140625 0.25 C 4.242188 0.25 3.453125 0.0351562 2.765625 -0.390625 C 2.078125 -0.816406 1.550781 -1.390625 1.1875 -2.109375 C 0.832031 -2.828125 0.65625 -3.609375 0.65625 -4.453125 C 0.65625 -5.390625 0.832031 -6.234375 1.1875 -6.984375 C 1.550781 -7.734375 2.066406 -8.320312 2.734375 -8.75 C 3.410156 -9.175781 4.195312 -9.390625 5.09375 -9.390625 C 5.96875 -9.390625 6.738281 -9.175781 7.40625 -8.75 C 8.070312 -8.332031 8.578125 -7.753906 8.921875 -7.015625 C 9.273438 -6.273438 9.453125 -5.445312 9.453125 -4.53125 C 9.453125 -4.4375 9.445312 -4.335938 9.4375 -4.234375 Z M 7.796875 -5.5625 C 7.671875 -6.28125 7.351562 -6.859375 6.84375 -7.296875 C 6.34375 -7.734375 5.765625 -7.953125 5.109375 -7.953125 C 4.472656 -7.953125 3.875 -7.722656 3.3125 -7.265625 C 2.757812 -6.804688 2.429688 -6.238281 2.328125 -5.5625 Z M 7.796875 -5.5625 "/></g></g></g><g fill="#003399" fill-opacity="1"><g transform="translate(122.50876, 35.835035)"><g><path d="M 3 0.25 C 2.695312 0.25 2.4375 0.140625 2.21875 -0.078125 C 2.007812 -0.296875 1.90625 -0.554688 1.90625 -0.859375 C 1.90625 -1.140625 2.007812 -1.382812 2.21875 -1.59375 C 2.4375 -1.8125 2.695312 -1.921875 3 -1.921875 C 3.289062 -1.921875 3.539062 -1.8125 3.75 -1.59375 C 3.96875 -1.382812 4.078125 -1.140625 4.078125 -0.859375 C 4.078125 -0.554688 3.96875 -0.296875 3.75 -0.078125 C 3.539062 0.140625 3.289062 0.25 3 0.25 Z M 3 0.25 "/></g></g></g><g fill="#003399" fill-opacity="1"><g transform="translate(128.498805, 35.835035)"><g><path d="M 8.265625 -7.84375 L 8.265625 -9.140625 L 9.828125 -9.140625 L 9.828125 0 L 8.265625 0 L 8.265625 -1.265625 L 8.234375 -1.265625 C 7.421875 -0.253906 6.367188 0.25 5.078125 0.25 C 3.804688 0.25 2.757812 -0.210938 1.9375 -1.140625 C 1.113281 -2.078125 0.703125 -3.210938 0.703125 -4.546875 C 0.703125 -5.953125 1.113281 -7.109375 1.9375 -8.015625 C 2.769531 -8.929688 3.820312 -9.390625 5.09375 -9.390625 C 5.726562 -9.390625 6.316406 -9.253906 6.859375 -8.984375 C 7.398438 -8.710938 7.859375 -8.332031 8.234375 -7.84375 Z M 5.265625 -7.953125 C 4.441406 -7.953125 3.738281 -7.632812 3.15625 -7 C 2.582031 -6.363281 2.296875 -5.585938 2.296875 -4.671875 C 2.296875 -3.679688 2.578125 -2.851562 3.140625 -2.1875 C 3.703125 -1.519531 4.421875 -1.1875 5.296875 -1.1875 C 6.210938 -1.1875 6.945312 -1.503906 7.5 -2.140625 C 8.0625 -2.773438 8.34375 -3.613281 8.34375 -4.65625 C 8.34375 -5.59375 8.054688 -6.375 7.484375 -7 C 6.921875 -7.632812 6.179688 -7.953125 5.265625 -7.953125 Z M 5.265625 -7.953125 "/></g></g></g><g fill="#003399" fill-opacity="1"><g transform="translate(139.720402, 35.835035)"><g><path d="M 3.328125 -9.140625 L 3.328125 0 L 1.765625 0 L 1.765625 -9.140625 Z M 1.4375 -12.625 C 1.4375 -12.90625 1.550781 -13.148438 1.78125 -13.359375 C 2.007812 -13.578125 2.265625 -13.6875 2.546875 -13.6875 C 2.847656 -13.6875 3.109375 -13.578125 3.328125 -13.359375 C 3.546875 -13.148438 3.65625 -12.90625 3.65625 -12.625 C 3.65625 -12.289062 3.546875 -12.015625 3.328125 -11.796875 C 3.109375 -11.585938 2.847656 -11.484375 2.546875 -11.484375 C 2.242188 -11.484375 1.984375 -11.582031 1.765625 -11.78125 C 1.546875 -11.988281 1.4375 -12.269531 1.4375 -12.625 Z M 1.4375 -12.625 "/></g></g></g></svg>